<svg width="44" height="62" viewBox="0 0 44 62" fill="none" xmlns="http://www.w3.org/2000/svg">
<path d="M43.4196 62H0.579834C0.259887 62 0 61.7437 0 61.4281V0.571855C0 0.25631 0.259887 0 0.579834 0H43.4196C43.7396 0 43.9994 0.25631 43.9994 0.571855V61.4281C44 61.7437 43.7401 62 43.4196 62ZM1.15967 60.8563H42.8398V1.14371H1.15967V60.8563Z" fill="#00A68A"/>
<path d="M34.4605 7.08752H5.27344V8.23123H34.4605V7.08752Z" fill="#00A68A"/>
<path d="M13.6982 28.5168H5.27347C4.96306 28.5168 4.71216 28.2694 4.71216 27.9633V19.6539C4.71216 19.3478 4.96306 19.1003 5.27347 19.1003H13.6987C14.0091 19.1003 14.26 19.3478 14.26 19.6539V27.9633C14.2595 28.2688 14.0086 28.5168 13.6982 28.5168ZM5.83478 27.4097H13.1374V20.2075H5.83478V27.4097Z" fill="#FFCB2E"/>
<path d="M26.0352 28.5168H17.6099C17.2995 28.5168 17.0486 28.2694 17.0486 27.9633V19.6539C17.0486 19.3478 17.2995 19.1003 17.6099 19.1003H26.0352C26.3456 19.1003 26.5965 19.3478 26.5965 19.6539V27.9633C26.5965 28.2688 26.3456 28.5168 26.0352 28.5168ZM18.1712 27.4097H25.4739V20.2075H18.1712V27.4097Z" fill="#FFCB2E"/>
<path d="M35.3036 28.5168H29.8387C29.5282 28.5168 29.2773 28.2694 29.2773 27.9633V19.6539C29.2773 19.3478 29.5282 19.1003 29.8387 19.1003H35.3036V20.2075H30.4V27.4097H35.3036V28.5168Z" fill="#FFCB2E"/>
<path d="M13.7527 41.9557H5.32742C5.01702 41.9557 4.76611 41.7082 4.76611 41.4021V33.0928C4.76611 32.7866 5.01702 32.5392 5.32742 32.5392H13.7527C14.0631 32.5392 14.314 32.7866 14.314 33.0928V41.4021C14.314 41.7082 14.0631 41.9557 13.7527 41.9557ZM5.88873 40.8485H13.1914V33.6464H5.88873V40.8485Z" fill="#FFCB2E"/>
<path d="M26.089 41.9557H17.6643C17.3539 41.9557 17.103 41.7082 17.103 41.4021V33.0928C17.103 32.7866 17.3539 32.5392 17.6643 32.5392H26.0896C26.4 32.5392 26.6509 32.7866 26.6509 33.0928V41.4021C26.6504 41.7082 26.3995 41.9557 26.089 41.9557ZM18.2256 40.8485H25.5283V33.6464H18.2256V40.8485Z" fill="#FFCB2E"/>
<path d="M35.3035 41.9557H29.9065C29.5961 41.9557 29.3452 41.7082 29.3452 41.4021V33.0928C29.3452 32.7866 29.5961 32.5392 29.9065 32.5392H35.3035V33.6464H30.4678V40.8485H35.3035V41.9557Z" fill="#FFCB2E"/>
<path d="M14.1087 55.3945H5.68338C5.37298 55.3945 5.12207 55.1471 5.12207 54.8409V46.5316C5.12207 46.2255 5.37298 45.978 5.68338 45.978H14.1087C14.4191 45.978 14.67 46.2255 14.67 46.5316V54.8409C14.67 55.1471 14.4191 55.3945 14.1087 55.3945ZM6.24469 54.2874H13.5473V47.0852H6.24469V54.2874Z" fill="#FFCB2E"/>
<path d="M26.4451 55.3945H18.0198C17.7094 55.3945 17.4585 55.1471 17.4585 54.8409V46.5316C17.4585 46.2255 17.7094 45.978 18.0198 45.978H26.4451C26.7555 45.978 27.0064 46.2255 27.0064 46.5316V54.8409C27.0064 55.1471 26.7555 55.3945 26.4451 55.3945ZM18.5817 54.2874H25.8843V47.0852H18.5817V54.2874Z" fill="#FFCB2E"/>
<path d="M35.3036 55.3945H30.3545C30.0441 55.3945 29.7932 55.1471 29.7932 54.8409V46.5316C29.7932 46.2255 30.0441 45.978 30.3545 45.978H35.3036V47.0852H30.9158V54.2874H35.3036V55.3945Z" fill="#FFCB2E"/>
<path d="M43.0097 1.64641L37.3225 7.25537L38.1425 8.06409L43.8297 2.45513L43.0097 1.64641Z" fill="#00A68A"/>
<path d="M43.0097 6.29351L37.3225 11.9025L38.1425 12.7112L43.8297 7.10223L43.0097 6.29351Z" fill="#00A68A"/>
<path d="M43.0098 10.9404L37.323 16.549L38.143 17.3577L43.8298 11.7491L43.0098 10.9404Z" fill="#00A68A"/>
<path d="M43.0097 15.5871L37.3225 21.196L38.1425 22.0048L43.8297 16.3958L43.0097 15.5871Z" fill="#00A68A"/>
<path d="M43.0096 20.234L37.3228 25.8425L38.1428 26.6512L43.8296 21.0427L43.0096 20.234Z" fill="#00A68A"/>
<path d="M43.0093 24.8808L37.3225 30.4894L38.1425 31.2981L43.8293 25.6895L43.0093 24.8808Z" fill="#00A68A"/>
<path d="M43.0092 29.5275L37.322 35.1365L38.142 35.9452L43.8292 30.3362L43.0092 29.5275Z" fill="#00A68A"/>
<path d="M43.0093 34.1743L37.3225 39.7828L38.1425 40.5916L43.8293 34.983L43.0093 34.1743Z" fill="#00A68A"/>
<path d="M43.0092 38.8211L37.322 44.4301L38.142 45.2388L43.8292 39.6298L43.0092 38.8211Z" fill="#00A68A"/>
<path d="M43.0095 43.4683L37.3223 49.0773L38.1423 49.886L43.8295 44.277L43.0095 43.4683Z" fill="#00A68A"/>
<path d="M43.0093 48.1151L37.3225 53.7236L38.1425 54.5323L43.8293 48.9238L43.0093 48.1151Z" fill="#00A68A"/>
<path d="M43.0092 52.7619L37.322 58.3708L38.142 59.1796L43.8292 53.5706L43.0092 52.7619Z" fill="#00A68A"/>
<path d="M39.6637 0.167958L36.8425 2.95032L37.6625 3.75903L40.4837 0.976675L39.6637 0.167958Z" fill="#00A68A"/>
<path d="M42.9872 57.3396L40.166 60.1219L40.986 60.9307L43.8072 58.1483L42.9872 57.3396Z" fill="#00A68A"/>
<path d="M5.27344 12.7108H9.89583" stroke="#00A68A" stroke-width="2.6" stroke-miterlimit="10"/>
<path d="M12.4263 12.7108H17.0487" stroke="#00A68A" stroke-width="2.6" stroke-miterlimit="10"/>
<path d="M19.5112 12.7108H24.1342" stroke="#00A68A" stroke-width="2.6" stroke-miterlimit="10"/>
<path d="M26.6504 12.7108H31.2733" stroke="#00A68A" stroke-width="2.6" stroke-miterlimit="10"/>
</svg>
