<svg width="106" height="71" viewBox="0 0 106 71" fill="none" xmlns="http://www.w3.org/2000/svg">
<path d="M94.6222 57.9909H12.0417C11.6383 57.9909 11.3105 57.6662 11.3105 57.2665V0.724404C11.3105 0.324684 11.6383 0 12.0417 0H94.6222C95.0257 0 95.3533 0.324684 95.3533 0.724404V57.2665C95.3533 57.6662 95.0257 57.9909 94.6222 57.9909ZM12.7729 56.5421H93.8903V1.44881H12.7729V56.5421Z" fill="#00A68A"/>
<path d="M105.269 66.0968H0.731152C0.327709 66.0968 0 65.7721 0 65.3724V57.2665C0 56.8668 0.327709 56.5421 0.731152 56.5421H105.268C105.672 56.5421 105.999 56.8668 105.999 57.2665V65.3724C106 65.7721 105.672 66.0968 105.269 66.0968ZM1.4623 64.648H104.537V57.9916H1.4623V64.648Z" fill="#00A68A"/>
<path d="M87.4516 71H19.2124C19.1225 71 19.034 70.9838 18.9505 70.9523L6.05239 66.0491C5.72327 65.9235 5.53146 65.5841 5.59516 65.2405C5.65957 64.8976 5.9618 64.6479 6.31428 64.6479H100.348C100.701 64.6479 101.003 64.8969 101.067 65.2405C101.132 65.5841 100.939 65.9242 100.61 66.0491L87.7128 70.9523C87.6299 70.9838 87.5415 71 87.4516 71ZM19.3476 69.5512H87.3157L96.4016 66.0968H10.2616L19.3476 69.5512Z" fill="#00A68A"/>
<path d="M78.8703 52.1115H19.1402C18.7368 52.1115 18.4091 51.7869 18.4091 51.3871V6.60453C18.4091 6.20481 18.7368 5.88013 19.1402 5.88013H78.8703V7.32893H19.8714V50.662H78.8696V52.1115H78.8703Z" fill="#00A68A"/>
<path d="M67.5194 62.1052H39.0094C38.572 62.1052 38.2167 61.7532 38.2167 61.3198V57.2672C38.2167 56.8338 38.572 56.4818 39.0094 56.4818H67.5194C67.9568 56.4818 68.3121 56.8338 68.3121 57.2672V61.3198C68.3121 61.7532 67.9568 62.1052 67.5194 62.1052ZM39.8014 60.5337H66.7259V58.0519H39.8014V60.5337Z" fill="#FFCB2E"/>
<path d="M94.1257 1.79478L82.8043 12.8887L83.7998 13.8859L95.1212 2.79198L94.1257 1.79478Z" fill="#00A68A"/>
<path d="M94.1255 8.38987L82.8046 19.4833L83.8 20.4805L95.1209 9.38707L94.1255 8.38987Z" fill="#00A68A"/>
<path d="M94.1254 14.984L82.8044 26.0774L83.7999 27.0746L95.1208 15.9812L94.1254 14.984Z" fill="#00A68A"/>
<path d="M94.1257 21.5785L82.8048 32.6719L83.8003 33.6691L95.1212 22.5757L94.1257 21.5785Z" fill="#00A68A"/>
<path d="M94.1256 28.1732L82.8047 39.2666L83.8001 40.2638L95.121 29.1704L94.1256 28.1732Z" fill="#00A68A"/>
<path d="M94.1256 34.7672L82.8047 45.8606L83.8001 46.8578L95.121 35.7644L94.1256 34.7672Z" fill="#00A68A"/>
<path d="M94.126 41.3617L82.8051 52.4551L83.8005 53.4523L95.1214 42.3589L94.126 41.3617Z" fill="#00A68A"/>
<path d="M88.8626 0.225855L84.2257 4.76953L85.2211 5.76673L89.858 1.22305L88.8626 0.225855Z" fill="#00A68A"/>
<path d="M94.125 47.83L89.4882 52.3737L90.4836 53.3709L95.1205 48.8272L94.125 47.83Z" fill="#00A68A"/>
<path d="M24.9561 12.1466H23.4938V32.0246H24.9561V12.1466Z" fill="#00A68A"/>
<path d="M24.9561 35.8914H23.4938V41.4404H24.9561V35.8914Z" fill="#00A68A"/>
</svg>
