<svg width="172" height="47" viewBox="0 0 172 47" fill="none" xmlns="http://www.w3.org/2000/svg">
<path fill-rule="evenodd" clip-rule="evenodd" d="M40.6723 42.6898C39.9858 41.9923 39.6249 41.0146 39.5909 39.7575L39.5739 39.0652L39.5909 38.3733C39.6249 37.1164 39.9858 36.1388 40.6723 35.4406C41.3591 34.7431 42.3145 34.3939 43.5389 34.3939C44.363 34.3939 45.0578 34.5411 45.6245 34.8352C46.1911 35.1294 46.6142 35.4954 46.8946 35.9337C47.1746 36.3719 47.3266 36.8102 47.3494 37.2484C47.3605 37.3524 47.3238 37.4448 47.2376 37.5254C47.1524 37.6064 47.0576 37.6465 46.9548 37.6465H46.1991C46.0852 37.6465 45.9991 37.6207 45.9422 37.5687C45.8845 37.5167 45.8274 37.4218 45.7705 37.2833C45.5646 36.718 45.2808 36.3171 44.9207 36.0809C44.5601 35.8446 44.1055 35.726 43.5558 35.726C42.8351 35.726 42.2626 35.9511 41.8396 36.4005C41.4159 36.8506 41.1871 37.5369 41.1531 38.4598L41.1358 39.0652L41.1531 39.6706C41.1871 40.5938 41.4159 41.2801 41.8396 41.7299C42.2626 42.1797 42.8351 42.4047 43.5558 42.4047C44.1163 42.4047 44.5743 42.2864 44.9291 42.0496C45.2839 41.8133 45.5646 41.4124 45.7705 40.8475C45.8274 40.709 45.8845 40.6137 45.9422 40.5618C45.9991 40.5101 46.0852 40.4843 46.1991 40.4843H46.9548C47.0576 40.4843 47.1524 40.5244 47.2376 40.605C47.3238 40.6863 47.3605 40.7784 47.3494 40.882C47.3266 41.3088 47.1746 41.7414 46.8946 42.1797C46.6142 42.6182 46.1911 42.9871 45.6245 43.2868C45.0578 43.5869 44.363 43.7366 43.5389 43.7366C42.3145 43.7366 41.3591 43.388 40.6723 42.6898Z" fill="#919395"/>
<path fill-rule="evenodd" clip-rule="evenodd" d="M53.906 41.7297C54.3867 41.2342 54.6273 40.5127 54.6273 39.5668V39.0825L52.6186 39.3766C51.795 39.4924 51.1716 39.6882 50.7476 39.9649C50.3239 40.2419 50.113 40.588 50.113 41.0029C50.113 41.4764 50.3041 41.8396 50.6877 42.093C51.0715 42.3466 51.5261 42.4736 52.0529 42.4736C52.8076 42.4736 53.4261 42.2259 53.906 41.7297ZM50.1559 43.3909C49.6804 43.1603 49.3033 42.8456 49.0226 42.4475C48.7419 42.0497 48.6021 41.6083 48.6021 41.1243C48.6021 40.3627 48.9115 39.7402 49.5294 39.2555C50.147 38.7712 50.9884 38.4481 52.0529 38.2866L54.6273 37.9233V37.4216C54.6273 36.2338 53.9458 35.6396 52.5846 35.6396C52.0581 35.6396 51.6344 35.7464 51.3142 35.9593C50.9937 36.1728 50.759 36.4243 50.6108 36.7122C50.5648 36.8277 50.5157 36.9052 50.4647 36.9457C50.4128 36.9865 50.3418 37.0067 50.2501 37.0067H49.5803C49.4775 37.0067 49.3886 36.9693 49.3144 36.8937C49.2397 36.8193 49.2033 36.7297 49.2033 36.626C49.2033 36.3605 49.3256 36.0521 49.5723 35.7C49.8181 35.3486 50.1988 35.0426 50.7136 34.7834C51.2284 34.5235 51.858 34.394 52.6016 34.394C53.8831 34.394 54.8015 34.694 55.357 35.2935C55.9116 35.8936 56.1895 36.6431 56.1895 37.5427V43.1659C56.1895 43.281 56.1515 43.3763 56.0777 43.4513C56.003 43.5263 55.9088 43.5637 55.7946 43.5637H55.0392C54.9244 43.5637 54.8333 43.5263 54.7644 43.4513C54.6955 43.3763 54.6613 43.281 54.6613 43.1659V42.4045C54.4096 42.7852 54.0437 43.1024 53.5632 43.3564C53.0824 43.6097 52.4648 43.7364 51.7092 43.7364C51.1484 43.7364 50.6308 43.6212 50.1559 43.3909Z" fill="#919395"/>
<path fill-rule="evenodd" clip-rule="evenodd" d="M64.342 41.6085C64.7197 41.0896 64.9257 40.4089 64.9606 39.5669C64.9717 39.4521 64.9775 39.2843 64.9775 39.0652C64.9775 36.8506 64.1651 35.7434 62.5399 35.7434C61.7386 35.7434 61.1349 36.0114 60.7291 36.5477C60.3224 37.0843 60.1084 37.7159 60.0853 38.4426C60.0735 38.5696 60.0683 38.7941 60.0683 39.1171C60.0683 39.4405 60.0735 39.665 60.0853 39.792C60.1084 40.4957 60.3283 41.1042 60.7461 41.6175C61.1639 42.1307 61.7617 42.3872 62.5399 42.3872C63.3638 42.3872 63.9644 42.1276 64.342 41.6085ZM58.6352 46.747C58.5604 46.6782 58.5234 46.5799 58.5234 46.4529V34.9646C58.5234 34.8383 58.5604 34.7399 58.6352 34.6705C58.7093 34.6014 58.8031 34.5665 58.918 34.5665H59.6388C59.7647 34.5665 59.8623 34.6014 59.9306 34.6705C59.9994 34.7399 60.0334 34.8383 60.0334 34.9646V35.7263C60.6973 34.8383 61.6416 34.3938 62.866 34.3938C64.0672 34.3938 64.9686 34.7773 65.5695 35.5445C66.1698 36.3115 66.4879 37.2891 66.5218 38.4769C66.5336 38.6042 66.5397 38.8003 66.5397 39.0652C66.5397 39.3307 66.5336 39.5268 66.5218 39.6534C66.4879 40.8303 66.1698 41.8049 65.5695 42.5774C64.9686 43.3506 64.0672 43.7365 62.866 43.7365C61.6416 43.7365 60.7143 43.2986 60.0853 42.4218V46.4529C60.0853 46.5684 60.0482 46.6636 59.9735 46.7386C59.8994 46.8136 59.8046 46.851 59.6906 46.851H58.918C58.8031 46.851 58.7093 46.8164 58.6352 46.747Z" fill="#919395"/>
<path fill-rule="evenodd" clip-rule="evenodd" d="M68.6417 43.4514C68.5675 43.3764 68.5305 43.2812 68.5305 43.166V34.9646C68.5305 34.8498 68.5675 34.7545 68.6417 34.6792C68.7164 34.6045 68.8106 34.5669 68.9251 34.5669H69.6808C69.7947 34.5669 69.8889 34.6045 69.9636 34.6792C70.0377 34.7545 70.0757 34.8498 70.0757 34.9646V43.166C70.0757 43.2812 70.0377 43.3764 69.9636 43.4514C69.8889 43.5264 69.7947 43.5638 69.6808 43.5638H68.9251C68.8106 43.5638 68.7164 43.5264 68.6417 43.4514ZM68.5046 32.7588C68.4298 32.6841 68.3928 32.5888 68.3928 32.4733V31.5738C68.3928 31.4583 68.4298 31.3603 68.5046 31.2797C68.5787 31.199 68.6735 31.1583 68.7874 31.1583H69.8006C69.9148 31.1583 70.0118 31.199 70.0927 31.2797C70.1727 31.3603 70.2125 31.4583 70.2125 31.5738V32.4733C70.2125 32.5888 70.1727 32.6841 70.0927 32.7588C70.0118 32.8341 69.9148 32.8714 69.8006 32.8714H68.7874C68.6735 32.8714 68.5787 32.8341 68.5046 32.7588Z" fill="#919395"/>
<path fill-rule="evenodd" clip-rule="evenodd" d="M73.2508 40.5361V35.899H71.8946C71.7797 35.899 71.6886 35.8644 71.6197 35.7953C71.5509 35.7262 71.5169 35.6341 71.5169 35.5183V34.9649C71.5169 34.8497 71.5509 34.7545 71.6197 34.6792C71.6886 34.6045 71.7797 34.5668 71.8946 34.5668H73.2508V31.6777C73.2508 31.5622 73.2848 31.467 73.3536 31.392C73.4219 31.317 73.5139 31.2796 73.6285 31.2796H74.3832C74.498 31.2796 74.5922 31.317 74.667 31.392C74.7411 31.467 74.7781 31.5622 74.7781 31.6777V34.5668H76.9067C77.0206 34.5668 77.1157 34.6045 77.1895 34.6792C77.2646 34.7545 77.3016 34.8497 77.3016 34.9649V35.5183C77.3016 35.6341 77.2646 35.7262 77.1895 35.7953C77.1157 35.8644 77.0206 35.899 76.9067 35.899H74.7781V40.4147C74.7781 41.003 74.8729 41.4472 75.0616 41.7469C75.2506 42.047 75.5736 42.1967 76.0312 42.1967H77.0787C77.1926 42.1967 77.2846 42.2347 77.3535 42.3097C77.4214 42.3844 77.4563 42.4799 77.4563 42.5948V43.1659C77.4563 43.2811 77.4214 43.3763 77.3535 43.4514C77.2846 43.5264 77.1926 43.5637 77.0787 43.5637H75.9114C74.1374 43.5637 73.2508 42.5546 73.2508 40.5361Z" fill="#919395"/>
<path fill-rule="evenodd" clip-rule="evenodd" d="M83.6351 41.7297C84.1159 41.2342 84.3564 40.5127 84.3564 39.5668V39.0825L82.3477 39.3766C81.5241 39.4924 80.9007 39.6882 80.4767 39.9649C80.053 40.2419 79.8421 40.588 79.8421 41.0029C79.8421 41.4764 80.033 41.8396 80.4168 42.093C80.8006 42.3466 81.2552 42.4736 81.782 42.4736C82.5367 42.4736 83.1552 42.2259 83.6351 41.7297ZM79.885 43.3909C79.4095 43.1603 79.0325 42.8456 78.7518 42.4475C78.4711 42.0497 78.3312 41.6083 78.3312 41.1243C78.3312 40.3627 78.6406 39.7402 79.2585 39.2555C79.8761 38.7712 80.7176 38.4481 81.782 38.2866L84.3564 37.9233V37.4216C84.3564 36.2338 83.6749 35.6396 82.3137 35.6396C81.7872 35.6396 81.3636 35.7464 81.0433 35.9593C80.7228 36.1728 80.4881 36.4243 80.3399 36.7122C80.2939 36.8277 80.2448 36.9052 80.1938 36.9457C80.142 36.9865 80.0709 37.0067 79.9792 37.0067H79.3094C79.2066 37.0067 79.1177 36.9693 79.0436 36.8937C78.9688 36.8193 78.9324 36.7297 78.9324 36.626C78.9324 36.3605 79.0547 36.0521 79.3014 35.7C79.5472 35.3486 79.928 35.0426 80.4427 34.7834C80.9575 34.5235 81.5871 34.394 82.3307 34.394C83.6122 34.394 84.5306 34.694 85.0861 35.2935C85.6407 35.8936 85.9186 36.6431 85.9186 37.5427V43.1659C85.9186 43.281 85.8807 43.3763 85.8069 43.4513C85.7321 43.5263 85.6379 43.5637 85.5237 43.5637H84.7684C84.6535 43.5637 84.5624 43.5263 84.4935 43.4513C84.4247 43.3763 84.3904 43.281 84.3904 43.1659V42.4045C84.1387 42.7852 83.7728 43.1024 83.292 43.3564C82.8115 43.6097 82.1939 43.7364 81.4383 43.7364C80.8775 43.7364 80.36 43.6212 79.885 43.3909Z" fill="#919395"/>
<path fill-rule="evenodd" clip-rule="evenodd" d="M88.3642 43.4514C88.2895 43.3764 88.2524 43.2812 88.2524 43.166V31.6775C88.2524 31.5508 88.2895 31.4524 88.3642 31.3836C88.4383 31.3139 88.5322 31.2797 88.6471 31.2797H89.4027C89.5167 31.2797 89.6108 31.317 89.6856 31.392C89.7597 31.467 89.7974 31.5623 89.7974 31.6775V43.166C89.7974 43.2812 89.7597 43.3764 89.6856 43.4514C89.6108 43.5264 89.5167 43.5638 89.4027 43.5638H88.6471C88.5322 43.5638 88.4383 43.5264 88.3642 43.4514Z" fill="#919395"/>
<path fill-rule="evenodd" clip-rule="evenodd" d="M97.3064 43.3476C96.7626 43.088 96.36 42.791 96.0962 42.4564C95.8331 42.1222 95.7013 41.8451 95.7013 41.626C95.7013 41.5108 95.7414 41.4215 95.8214 41.3577C95.9014 41.2945 95.9872 41.2628 96.079 41.2628H96.7997C96.8685 41.2628 96.9226 41.2743 96.9634 41.2973C97.0035 41.3204 97.0575 41.3726 97.1264 41.4529C97.3895 41.776 97.6841 42.03 98.0099 42.2143C98.3366 42.3989 98.7745 42.491 99.3232 42.491C99.9411 42.491 100.436 42.3758 100.808 42.1449C101.18 41.9145 101.366 41.5799 101.366 41.1414C101.366 40.8532 101.286 40.6225 101.126 40.4494C100.965 40.2767 100.699 40.1205 100.328 39.9823C99.9559 39.8441 99.4032 39.6943 98.6713 39.5325C97.6751 39.3137 96.9717 38.9962 96.5598 38.5807C96.1481 38.1657 95.9422 37.6291 95.9422 36.9718C95.9422 36.5453 96.0678 36.1326 96.3198 35.7348C96.5709 35.3367 96.9457 35.0139 97.4441 34.7659C97.9419 34.5178 98.5336 34.3939 99.2204 34.3939C99.9411 34.3939 100.557 34.515 101.065 34.7572C101.575 34.9993 101.958 35.2819 102.215 35.605C102.473 35.9281 102.602 36.1992 102.602 36.4183C102.602 36.522 102.564 36.6082 102.491 36.6776C102.415 36.7467 102.327 36.7816 102.224 36.7816H101.572C101.412 36.7816 101.297 36.7181 101.229 36.5911C101.034 36.372 100.871 36.2017 100.739 36.0809C100.607 35.9596 100.416 35.8559 100.165 35.7694C99.9127 35.6828 99.598 35.6396 99.2204 35.6396C98.6596 35.6396 98.2307 35.7579 97.933 35.9941C97.6353 36.231 97.4865 36.5453 97.4865 36.9372C97.4865 37.1794 97.5494 37.3842 97.6751 37.5516C97.8011 37.7188 98.042 37.8744 98.3968 38.0185C98.7507 38.1629 99.2772 38.3102 99.9757 38.4599C101.062 38.6905 101.832 39.0192 102.285 39.446C102.736 39.8727 102.962 40.4208 102.962 41.0897C102.962 41.5855 102.822 42.0356 102.541 42.439C102.261 42.843 101.844 43.1602 101.289 43.3908C100.733 43.6212 100.073 43.7366 99.3062 43.7366C98.5166 43.7366 97.8499 43.6069 97.3064 43.3476Z" fill="#00A589"/>
<path fill-rule="evenodd" clip-rule="evenodd" d="M110.163 41.7384C110.592 41.2715 110.824 40.5995 110.858 39.7227C110.869 39.6076 110.876 39.3884 110.876 39.0653C110.876 38.7426 110.869 38.5231 110.858 38.408C110.824 37.5315 110.592 36.8595 110.163 36.3923C109.734 35.9251 109.153 35.6916 108.421 35.6916C107.688 35.6916 107.108 35.9251 106.679 36.3923C106.249 36.8595 106.017 37.5315 105.983 38.408L105.966 39.0653L105.983 39.7227C106.017 40.5995 106.249 41.2715 106.679 41.7384C107.108 42.2056 107.688 42.4391 108.421 42.4391C109.153 42.4391 109.734 42.2056 110.163 41.7384ZM105.512 42.6641C104.83 41.9488 104.467 40.9973 104.421 39.8093L104.404 39.0653L104.421 38.3211C104.467 37.1337 104.836 36.1818 105.529 35.4666C106.22 34.7516 107.185 34.394 108.421 34.394C109.656 34.394 110.621 34.7516 111.313 35.4666C112.005 36.1818 112.375 37.1337 112.42 38.3211C112.443 38.5751 112.455 38.8229 112.455 39.0653C112.455 39.3075 112.443 39.5559 112.42 39.8093C112.375 40.9973 112.011 41.9488 111.33 42.6641C110.649 43.3794 109.679 43.7364 108.421 43.7364C107.162 43.7364 106.192 43.3794 105.512 42.6641Z" fill="#00A589"/>
<path fill-rule="evenodd" clip-rule="evenodd" d="M114.574 43.4514C114.5 43.3764 114.463 43.2812 114.463 43.166V31.6775C114.463 31.5508 114.5 31.4524 114.574 31.3836C114.648 31.3139 114.743 31.2797 114.857 31.2797H115.613C115.727 31.2797 115.821 31.317 115.896 31.392C115.97 31.467 116.008 31.5623 116.008 31.6775V43.166C116.008 43.2812 115.97 43.3764 115.896 43.4514C115.821 43.5264 115.727 43.5638 115.613 43.5638H114.857C114.743 43.5638 114.648 43.5264 114.574 43.4514Z" fill="#00A589"/>
<path fill-rule="evenodd" clip-rule="evenodd" d="M119.218 42.6728C118.622 41.9635 118.324 41.0207 118.324 39.8441V34.9648C118.324 34.8496 118.362 34.7547 118.436 34.6791C118.51 34.6047 118.605 34.5667 118.72 34.5667H119.509C119.623 34.5667 119.718 34.6047 119.792 34.6791C119.867 34.7547 119.904 34.8496 119.904 34.9648V39.7573C119.904 41.5109 120.659 42.3874 122.17 42.3874C122.902 42.3874 123.483 42.1539 123.912 41.6864C124.341 41.2195 124.556 40.5765 124.556 39.7573V34.9648C124.556 34.8496 124.593 34.7547 124.668 34.6791C124.742 34.6047 124.836 34.5667 124.95 34.5667H125.74C125.854 34.5667 125.949 34.6047 126.023 34.6791C126.098 34.7547 126.135 34.8496 126.135 34.9648V43.1658C126.135 43.2813 126.098 43.3763 126.023 43.4513C125.949 43.5266 125.854 43.5636 125.74 43.5636H125.001C124.887 43.5636 124.793 43.5266 124.718 43.4513C124.644 43.3763 124.607 43.2813 124.607 43.1658V42.3874C124.275 42.8368 123.886 43.1746 123.44 43.3996C122.994 43.6243 122.427 43.7364 121.74 43.7364C120.653 43.7364 119.812 43.3819 119.218 42.6728Z" fill="#00A589"/>
<path fill-rule="evenodd" clip-rule="evenodd" d="M129.31 40.5361V35.899H127.954C127.84 35.899 127.748 35.8644 127.68 35.7953C127.611 35.7262 127.577 35.6341 127.577 35.5183V34.9649C127.577 34.8497 127.611 34.7545 127.68 34.6792C127.748 34.6045 127.84 34.5668 127.954 34.5668H129.31V31.6777C129.31 31.5622 129.345 31.467 129.413 31.392C129.482 31.317 129.573 31.2796 129.688 31.2796H130.443C130.557 31.2796 130.651 31.317 130.726 31.392C130.8 31.467 130.838 31.5622 130.838 31.6777V34.5668H132.966C133.081 34.5668 133.175 34.6045 133.25 34.6792C133.324 34.7545 133.361 34.8497 133.361 34.9649V35.5183C133.361 35.6341 133.324 35.7262 133.25 35.7953C133.175 35.8644 133.081 35.899 132.966 35.899H130.838V40.4147C130.838 41.003 130.932 41.4472 131.121 41.7469C131.31 42.047 131.633 42.1967 132.091 42.1967H133.138C133.252 42.1967 133.344 42.2347 133.413 42.3097C133.482 42.3844 133.516 42.4799 133.516 42.5948V43.1659C133.516 43.2811 133.482 43.3763 133.413 43.4514C133.344 43.5264 133.252 43.5637 133.138 43.5637H131.971C130.197 43.5637 129.31 42.5546 129.31 40.5361Z" fill="#00A589"/>
<path fill-rule="evenodd" clip-rule="evenodd" d="M135.137 43.4514C135.063 43.3764 135.026 43.2812 135.026 43.166V34.9646C135.026 34.8498 135.063 34.7545 135.137 34.6792C135.212 34.6045 135.306 34.5669 135.42 34.5669H136.176C136.29 34.5669 136.384 34.6045 136.459 34.6792C136.533 34.7545 136.571 34.8498 136.571 34.9646V43.166C136.571 43.2812 136.533 43.3764 136.459 43.4514C136.384 43.5264 136.29 43.5638 136.176 43.5638H135.42C135.306 43.5638 135.212 43.5264 135.137 43.4514ZM135 32.7588C134.925 32.6841 134.888 32.5888 134.888 32.4733V31.5738C134.888 31.4583 134.925 31.3603 135 31.2797C135.074 31.199 135.169 31.1583 135.283 31.1583H136.296C136.41 31.1583 136.507 31.199 136.588 31.2797C136.668 31.3603 136.708 31.4583 136.708 31.5738V32.4733C136.708 32.5888 136.668 32.6841 136.588 32.7588C136.507 32.8341 136.41 32.8714 136.296 32.8714H135.283C135.169 32.8714 135.074 32.8341 135 32.7588Z" fill="#00A589"/>
<path fill-rule="evenodd" clip-rule="evenodd" d="M144.337 41.7384C144.766 41.2715 144.998 40.5995 145.033 39.7227C145.044 39.6076 145.05 39.3884 145.05 39.0653C145.05 38.7426 145.044 38.5231 145.033 38.408C144.998 37.5315 144.766 36.8595 144.337 36.3923C143.909 35.9251 143.327 35.6916 142.596 35.6916C141.863 35.6916 141.282 35.9251 140.853 36.3923C140.424 36.8595 140.192 37.5315 140.158 38.408L140.141 39.0653L140.158 39.7227C140.192 40.5995 140.424 41.2715 140.853 41.7384C141.282 42.2056 141.863 42.4391 142.596 42.4391C143.327 42.4391 143.909 42.2056 144.337 41.7384ZM139.686 42.6641C139.005 41.9488 138.642 40.9973 138.596 39.8093L138.579 39.0653L138.596 38.3211C138.642 37.1337 139.011 36.1818 139.703 35.4666C140.395 34.7516 141.359 34.394 142.596 34.394C143.831 34.394 144.795 34.7516 145.488 35.4666C146.179 36.1818 146.549 37.1337 146.595 38.3211C146.617 38.5751 146.629 38.8229 146.629 39.0653C146.629 39.3075 146.617 39.5559 146.595 39.8093C146.549 40.9973 146.185 41.9488 145.505 42.6641C144.824 43.3794 143.854 43.7364 142.596 43.7364C141.336 43.7364 140.367 43.3794 139.686 42.6641Z" fill="#00A589"/>
<path fill-rule="evenodd" clip-rule="evenodd" d="M148.731 43.4514C148.657 43.3764 148.62 43.2811 148.62 43.166V34.9646C148.62 34.8498 148.657 34.7545 148.731 34.6792C148.806 34.6045 148.9 34.5669 149.015 34.5669H149.753C149.878 34.5669 149.976 34.6014 150.044 34.6705C150.113 34.7399 150.147 34.8383 150.147 34.9646V35.7263C150.491 35.2996 150.889 34.9706 151.341 34.7399C151.792 34.5093 152.356 34.3938 153.032 34.3938C154.13 34.3938 154.983 34.7486 155.589 35.4577C156.196 36.1673 156.499 37.1042 156.499 38.2696V43.166C156.499 43.2811 156.462 43.3764 156.387 43.4514C156.313 43.5264 156.218 43.5638 156.104 43.5638H155.314C155.2 43.5638 155.105 43.5264 155.031 43.4514C154.957 43.3764 154.92 43.2811 154.92 43.166V38.3732C154.92 37.5428 154.72 36.8969 154.319 36.4353C153.918 35.9741 153.346 35.7434 152.602 35.7434C151.87 35.7434 151.287 35.9772 150.852 36.4441C150.416 36.9113 150.199 37.5543 150.199 38.3732V43.166C150.199 43.2811 150.162 43.3764 150.087 43.4514C150.013 43.5264 149.919 43.5638 149.805 43.5638H149.015C148.9 43.5638 148.806 43.5264 148.731 43.4514Z" fill="#00A589"/>
<path fill-rule="evenodd" clip-rule="evenodd" d="M159.872 43.3476C159.328 43.088 158.925 42.791 158.661 42.4564C158.398 42.1222 158.267 41.8451 158.267 41.626C158.267 41.5108 158.307 41.4215 158.387 41.3577C158.467 41.2945 158.553 41.2628 158.644 41.2628H159.365C159.434 41.2628 159.488 41.2743 159.528 41.2973C159.568 41.3204 159.623 41.3726 159.691 41.4529C159.955 41.776 160.249 42.03 160.575 42.2143C160.901 42.3989 161.339 42.491 161.889 42.491C162.506 42.491 163.001 42.3758 163.373 42.1449C163.745 41.9145 163.931 41.5799 163.931 41.1414C163.931 40.8532 163.85 40.6225 163.69 40.4494C163.53 40.2767 163.264 40.1205 162.892 39.9823C162.52 39.8441 161.969 39.6943 161.236 39.5325C160.241 39.3137 159.537 38.9962 159.125 38.5807C158.713 38.1657 158.507 37.6291 158.507 36.9718C158.507 36.5453 158.632 36.1326 158.884 35.7348C159.136 35.3367 159.511 35.0139 160.009 34.7659C160.506 34.5178 161.099 34.3939 161.786 34.3939C162.506 34.3939 163.121 34.515 163.631 34.7572C164.139 34.9993 164.523 35.2819 164.781 35.605C165.038 35.9281 165.167 36.1992 165.167 36.4183C165.167 36.522 165.13 36.6082 165.055 36.6776C164.981 36.7467 164.892 36.7816 164.789 36.7816H164.137C163.976 36.7816 163.862 36.7181 163.794 36.5911C163.599 36.372 163.436 36.2017 163.305 36.0809C163.173 35.9596 162.981 35.8559 162.729 35.7694C162.477 35.6828 162.163 35.6396 161.786 35.6396C161.224 35.6396 160.795 35.7579 160.498 35.9941C160.2 36.231 160.052 36.5453 160.052 36.9372C160.052 37.1794 160.115 37.3842 160.241 37.5516C160.367 37.7188 160.606 37.8744 160.961 38.0185C161.316 38.1629 161.843 38.3102 162.54 38.4599C163.628 38.6905 164.397 39.0192 164.849 39.446C165.301 39.8727 165.528 40.4208 165.528 41.0897C165.528 41.5855 165.387 42.0356 165.107 42.439C164.826 42.843 164.408 43.1602 163.854 43.3908C163.299 43.6212 162.637 43.7366 161.871 43.7366C161.081 43.7366 160.414 43.6069 159.872 43.3476Z" fill="#00A589"/>
<path fill-rule="evenodd" clip-rule="evenodd" d="M40.6531 26.5348C40.5278 26.4094 40.4657 26.2422 40.4657 26.0327V11.0914C40.4657 10.8822 40.5278 10.7148 40.6531 10.5893C40.7776 10.4636 40.9434 10.401 41.1509 10.401H41.6805C41.8877 10.401 42.0545 10.4636 42.1789 10.5893C42.3033 10.7148 42.3654 10.8822 42.3654 11.0914V12.1901C42.9055 11.4995 43.5336 10.9769 44.2497 10.6208C44.9661 10.265 45.8221 10.087 46.8183 10.087C49.1435 10.087 50.8048 11.0709 51.801 13.0377C52.2994 12.1382 53.0106 11.421 53.9342 10.8872C54.8578 10.354 55.9117 10.087 57.0953 10.087C58.8181 10.087 60.2194 10.6787 61.2993 11.8605C62.3782 13.043 62.9186 14.7225 62.9186 16.8985V26.0327C62.9186 26.2422 62.8563 26.4094 62.7318 26.5348C62.6074 26.6605 62.4406 26.7231 62.2334 26.7231H61.7035C61.4963 26.7231 61.3305 26.6605 61.2061 26.5348C61.0816 26.4094 61.0186 26.2422 61.0186 26.0327V17.2123C61.0186 15.3086 60.6298 13.9478 59.8514 13.1317C59.0729 12.3159 58.0498 11.9075 56.7835 11.9075C55.6628 11.9075 54.6917 12.3209 53.8718 13.1476C53.052 13.9743 52.6425 15.3292 52.6425 17.2123V26.0327C52.6425 26.2422 52.5795 26.4094 52.4551 26.5348C52.3306 26.6605 52.1639 26.7231 51.9573 26.7231H51.4277C51.2196 26.7231 51.0537 26.6605 50.9293 26.5348C50.8048 26.4094 50.7425 26.2422 50.7425 26.0327V17.2123C50.7425 15.3292 50.3373 13.9743 49.5277 13.1476C48.7183 12.3209 47.711 11.9075 46.5073 11.9075C45.3861 11.9075 44.4158 12.3209 43.5957 13.1476C42.7752 13.9743 42.3654 15.3186 42.3654 17.1809V26.0327C42.3654 26.2422 42.3033 26.4094 42.1789 26.5348C42.0545 26.6605 41.8877 26.7231 41.6805 26.7231H41.1509C40.9434 26.7231 40.7776 26.6605 40.6531 26.5348Z" fill="#01A68A"/>
<path fill-rule="evenodd" clip-rule="evenodd" d="M75.9039 23.7101C76.8794 22.7056 77.3673 21.2617 77.3673 19.3783V18.311L73.3508 18.8759C71.6481 19.1062 70.3607 19.5037 69.489 20.0687C68.6172 20.6339 68.1809 21.3454 68.1809 22.2033C68.1809 23.1657 68.5808 23.909 69.38 24.4319C70.1791 24.9551 71.108 25.2166 72.1672 25.2166C73.6827 25.2166 74.9275 24.7142 75.9039 23.7101ZM69.0844 26.4093C68.2328 25.991 67.5528 25.426 67.0448 24.7142C66.5359 24.003 66.2818 23.2183 66.2818 22.3605C66.2818 20.9791 66.8364 19.8492 67.9475 18.9699C69.0579 18.0912 70.5577 17.5263 72.4473 17.2751L77.3673 16.5847V15.486C77.3673 14.3353 77.0199 13.451 76.3245 12.8338C75.6282 12.2165 74.5647 11.9075 73.1322 11.9075C72.0739 11.9075 71.2065 12.1169 70.5324 12.5353C69.8571 12.9542 69.4266 13.4566 69.2401 14.0418C69.1564 14.2933 69.0579 14.466 68.9436 14.56C68.8297 14.654 68.6793 14.7013 68.4928 14.7013H68.0565C67.8696 14.7013 67.7081 14.6335 67.5735 14.4974C67.4386 14.3614 67.3712 14.1989 67.3712 14.0106C67.3712 13.5506 67.5787 13.0115 67.9941 12.3943C68.4091 11.7774 69.0533 11.2383 69.9253 10.7776C70.7967 10.3176 71.8658 10.0869 73.1322 10.0869C75.3536 10.0869 76.9319 10.6207 77.866 11.688C78.7998 12.7553 79.2673 14.0527 79.2673 15.5803V26.0327C79.2673 26.2422 79.205 26.4093 79.0805 26.5347C78.9561 26.6605 78.7896 26.7234 78.5821 26.7234H78.0525C77.8453 26.7234 77.6792 26.6605 77.5548 26.5347C77.4297 26.4093 77.3673 26.2422 77.3673 26.0327V24.5576C76.9103 25.248 76.2408 25.8341 75.3586 26.3153C74.4767 26.7965 73.3085 27.0371 71.8562 27.0371C70.8591 27.0371 69.9355 26.8279 69.0844 26.4093Z" fill="#01A68A"/>
<path fill-rule="evenodd" clip-rule="evenodd" d="M84.0631 26.5348C83.938 26.4094 83.8757 26.2422 83.8757 26.0328V11.1229C83.8757 10.9137 83.938 10.7413 84.0631 10.6052C84.1876 10.4692 84.3534 10.4011 84.5609 10.4011H85.0593C85.2668 10.4011 85.4379 10.4692 85.5734 10.6052C85.7081 10.7413 85.7754 10.9137 85.7754 11.1229V12.5668C86.523 11.1229 87.9348 10.4011 90.0109 10.4011H91.1633C91.3708 10.4011 91.5366 10.4636 91.6608 10.5894C91.7861 10.7148 91.8482 10.8823 91.8482 11.0914V11.5309C91.8482 11.7404 91.7861 11.9076 91.6608 12.0333C91.5366 12.1587 91.3708 12.2216 91.1633 12.2216H89.824C88.5783 12.2216 87.5917 12.588 86.8658 13.32C86.1385 14.0527 85.7754 15.0466 85.7754 16.3022V26.0328C85.7754 26.2422 85.7081 26.4094 85.5734 26.5348C85.4379 26.6606 85.2668 26.7231 85.0593 26.7231H84.5609C84.3534 26.7231 84.1876 26.6606 84.0631 26.5348Z" fill="#01A68A"/>
<path fill-rule="evenodd" clip-rule="evenodd" d="M94.6193 26.5348C94.4948 26.4094 94.4327 26.2422 94.4327 26.0327V5.12739C94.4327 4.91885 94.4948 4.75077 94.6193 4.62533C94.7437 4.49989 94.9095 4.43671 95.1176 4.43671H95.6472C95.8541 4.43671 96.0206 4.49989 96.145 4.62533C96.2695 4.75077 96.3325 4.91885 96.3325 5.12739V26.0327C96.3325 26.2422 96.2695 26.4094 96.145 26.5348C96.0206 26.6605 95.8541 26.7231 95.6472 26.7231H95.1176C94.9095 26.7231 94.7437 26.6605 94.6193 26.5348Z" fill="#01A68A"/>
<path fill-rule="evenodd" clip-rule="evenodd" d="M101.283 26.5348C101.159 26.4094 101.097 26.2422 101.097 26.0327V11.0914C101.097 10.8822 101.159 10.7148 101.283 10.5893C101.408 10.4636 101.573 10.401 101.781 10.401H102.311C102.518 10.401 102.684 10.4636 102.809 10.5893C102.933 10.7148 102.996 10.8822 102.996 11.0914V26.0327C102.996 26.2422 102.933 26.4094 102.809 26.5348C102.684 26.6605 102.518 26.7231 102.311 26.7231H101.781C101.573 26.7231 101.408 26.6605 101.283 26.5348ZM100.941 6.85394C100.816 6.7285 100.753 6.56136 100.753 6.35188V5.15883C100.753 4.95028 100.816 4.77722 100.941 4.6412C101.065 4.50518 101.231 4.43671 101.438 4.43671H102.622C102.83 4.43671 103.001 4.50518 103.136 4.6412C103.271 4.77722 103.338 4.95028 103.338 5.15883V6.35188C103.338 6.56136 103.271 6.7285 103.136 6.85394C103.001 6.97938 102.83 7.04225 102.622 7.04225H101.438C101.231 7.04225 101.065 6.97938 100.941 6.85394Z" fill="#01A68A"/>
<path fill-rule="evenodd" clip-rule="evenodd" d="M107.916 26.5348C107.791 26.4094 107.729 26.2422 107.729 26.0327V11.0914C107.729 10.8822 107.791 10.7148 107.916 10.5893C108.04 10.4636 108.206 10.401 108.414 10.401H108.944C109.151 10.401 109.317 10.4636 109.442 10.5893C109.566 10.7148 109.629 10.8822 109.629 11.0914V12.5668C110.251 11.7506 110.962 11.1337 111.762 10.7148C112.561 10.2965 113.594 10.087 114.86 10.087C116.895 10.087 118.462 10.7412 119.563 12.0488C120.663 13.3571 121.213 15.0466 121.213 17.1183V26.0327C121.213 26.2422 121.151 26.4094 121.026 26.5348C120.901 26.6605 120.735 26.7231 120.528 26.7231H119.998C119.791 26.7231 119.625 26.6605 119.5 26.5348C119.376 26.4094 119.313 26.2422 119.313 26.0327V17.2749C119.313 15.5804 118.903 14.2619 118.083 13.32C117.263 12.3788 116.085 11.9075 114.548 11.9075C113.054 11.9075 111.86 12.3837 110.967 13.3356C110.075 14.2883 109.629 15.6012 109.629 17.2749V26.0327C109.629 26.2422 109.566 26.4094 109.442 26.5348C109.317 26.6605 109.151 26.7231 108.944 26.7231H108.414C108.206 26.7231 108.04 26.6605 107.916 26.5348Z" fill="#01A68A"/>
<path fill-rule="evenodd" clip-rule="evenodd" d="M0.595464 22.5296C0.477195 22.571 0.350897 22.5059 0.314459 22.3855L0.0099847 21.377C-0.0267622 21.2565 0.0411732 21.1264 0.160369 21.0885L31.5632 11.0292C31.6824 10.9909 31.8115 11.0579 31.8501 11.1777L31.9029 11.3414C31.9415 11.4612 31.8763 11.5932 31.758 11.6346L0.595464 22.5296Z" fill="#009A9A"/>
<path fill-rule="evenodd" clip-rule="evenodd" d="M32.3825 18.4857C32.3704 18.6111 32.2589 18.7007 32.1348 18.6852L0.79436 14.6958C0.670223 14.6799 0.575732 14.5641 0.584069 14.4384L0.590554 14.3434C0.5992 14.2177 0.708206 14.1237 0.83296 14.1346L32.3105 16.8572C32.435 16.8677 32.5273 16.9795 32.5152 17.1049L32.3825 18.4857Z" fill="#00A59B"/>
<path fill-rule="evenodd" clip-rule="evenodd" d="M32.4792 17.6998C32.4706 17.8255 32.3612 17.918 32.2368 17.9052L0.792296 14.6912C0.66785 14.6784 0.573358 14.5651 0.582314 14.4393L0.640676 13.6061C0.649323 13.4804 0.758328 13.3885 0.882773 13.4022L32.3109 16.8519C32.4354 16.8656 32.5299 16.9798 32.5209 17.1053L32.4792 17.6998Z" fill="#00A19B"/>
<path fill-rule="evenodd" clip-rule="evenodd" d="M13.2614 0.157903C13.2244 0.0374458 13.0972 -0.0282297 12.9786 0.0119226L11.7545 0.426207C11.6356 0.466671 11.5717 0.597088 11.6118 0.7163L22.3669 32.6604C22.4071 32.7799 22.5383 32.8494 22.6588 32.8151L23.0284 32.7096C23.1488 32.6751 23.2171 32.5484 23.18 32.4279L13.2614 0.157903Z" fill="#076B6B"/>
<path fill-rule="evenodd" clip-rule="evenodd" d="M16.7639 32.8354C16.7556 32.9611 16.6462 33.0564 16.5215 33.0467L15.1019 32.9381C14.9772 32.9285 14.8855 32.818 14.8981 32.6925L18.1597 0.333792C18.1723 0.208355 18.2844 0.114355 18.4092 0.125249L18.7655 0.155441C18.8903 0.166335 18.9854 0.277765 18.9767 0.403514L16.7639 32.8354Z" fill="#00A59B"/>
<path fill-rule="evenodd" clip-rule="evenodd" d="M31.8919 23.8966C31.8367 24.0099 31.7008 24.0541 31.5902 23.9949L1.44022 7.90505C1.32967 7.84622 1.2886 7.7074 1.34912 7.59722L1.77218 6.82561C1.8327 6.71511 1.97228 6.67434 2.0819 6.73472L31.9846 23.1881C32.0945 23.2485 32.139 23.3908 32.084 23.5038L31.8919 23.8966Z" fill="#61C5BE"/>
<path fill-rule="evenodd" clip-rule="evenodd" d="M27.5467 28.0896C27.4547 28.1752 27.3105 28.1686 27.2262 28.0756L6.43272 5.08353C6.34842 4.99047 6.35367 4.84293 6.44415 4.75609L6.86627 4.34959C6.95706 4.26243 7.10096 4.26648 7.18649 4.3583L28.3181 27.0615C28.4036 27.1536 28.3984 27.2987 28.3064 27.3839L27.5467 28.0896Z" fill="#01A488"/>
<path fill-rule="evenodd" clip-rule="evenodd" d="M8.69566 32.9753C8.59067 32.9068 8.54805 32.7574 8.60086 32.6432L23.3848 0.784027C23.4379 0.669484 23.571 0.625596 23.681 0.68598L24.7296 1.26305C24.8393 1.32344 24.8843 1.46568 24.83 1.57898L9.5535 33.2629C9.49884 33.3762 9.36791 33.4129 9.26292 33.3447L8.69566 32.9753Z" fill="#2AB7A9"/>
<path fill-rule="evenodd" clip-rule="evenodd" d="M5.27505 28.4761C5.1855 28.5638 5.04469 28.5582 4.96224 28.4633L4.59169 28.0363C4.50924 27.9416 4.51603 27.7925 4.60651 27.7057L27.2639 5.93848C27.3541 5.85132 27.5007 5.8535 27.5887 5.94283L27.7518 6.1078C27.8401 6.19713 27.8389 6.34218 27.7493 6.42995L5.27505 28.4761Z" fill="#00A59B"/>
<path fill-rule="evenodd" clip-rule="evenodd" d="M16.4296 15.779L27.2619 5.93144C27.3548 5.84709 27.5031 5.85113 27.5914 5.94046L27.8786 6.23149C27.9669 6.32082 27.9653 6.46556 27.8752 6.55302L5.28264 28.4812C5.19247 28.5686 5.05135 28.5627 4.96859 28.4681L3.793 27.1194C3.71024 27.0245 3.72013 26.8794 3.81462 26.7969L16.4296 15.779Z" fill="#00A59B"/>
<path fill-rule="evenodd" clip-rule="evenodd" d="M169.282 35.0763C169.239 35.033 169.218 34.9748 169.218 34.9023V32.4913C169.218 32.4191 169.239 32.3609 169.282 32.3176C169.325 32.274 169.383 32.2523 169.454 32.2523H169.605C169.727 32.2523 169.838 32.3323 169.939 32.4913L170.607 33.5664L171.276 32.4913C171.376 32.3323 171.487 32.2523 171.61 32.2523H171.76C171.832 32.2523 171.89 32.274 171.933 32.3176C171.976 32.3609 171.997 32.4191 171.997 32.4913V34.9023C171.997 34.9748 171.976 35.033 171.933 35.0763C171.89 35.1199 171.832 35.1414 171.76 35.1414H171.61C171.538 35.1414 171.48 35.1199 171.437 35.0763C171.394 35.033 171.373 34.9748 171.373 34.9023V33.5013L170.931 34.2291C170.88 34.3087 170.837 34.3648 170.801 34.3974C170.765 34.4301 170.715 34.4463 170.651 34.4463H170.564C170.5 34.4463 170.449 34.4301 170.413 34.3974C170.377 34.3648 170.334 34.3087 170.284 34.2291L169.842 33.5013V34.9023C169.842 34.9748 169.821 35.033 169.778 35.0763C169.734 35.1199 169.677 35.1414 169.605 35.1414H169.454C169.383 35.1414 169.325 35.1199 169.282 35.0763ZM167.536 35.0763C167.493 35.033 167.472 34.9748 167.472 34.9023V32.8608H166.911C166.839 32.8608 166.782 32.839 166.739 32.7954C166.696 32.7518 166.674 32.6942 166.674 32.6217V32.4913C166.674 32.4191 166.696 32.3609 166.739 32.3176C166.782 32.274 166.839 32.2523 166.911 32.2523H168.657C168.729 32.2523 168.786 32.274 168.829 32.3176C168.873 32.3609 168.894 32.4191 168.894 32.4913V32.6217C168.894 32.6942 168.873 32.7518 168.829 32.7954C168.786 32.839 168.729 32.8608 168.657 32.8608H168.097V34.9023C168.097 34.9748 168.075 35.033 168.032 35.0763C167.989 35.1199 167.931 35.1414 167.86 35.1414H167.709C167.637 35.1414 167.579 35.1199 167.536 35.0763Z" fill="#01A68A"/>
</svg>
