<svg width="43" height="52" viewBox="0 0 43 52" fill="none" xmlns="http://www.w3.org/2000/svg">
<g clip-path="url(#clip0)">
<path d="M30.4615 52H11.6349C9.81945 52 8.0424 51.3485 6.63115 50.166C1.98303 46.2676 0 41.7252 0 34.9768C0 27.3628 8.55589 15.6353 14.6901 10.5794C14.8727 10.4281 15.1278 10.4065 15.3328 10.5229C15.478 10.6045 15.6281 10.6462 15.7792 10.6462H26.3172C26.4683 10.6462 26.6179 10.6045 26.7641 10.5224C26.9696 10.407 27.2242 10.43 27.4063 10.5794C33.5405 15.6353 42.0964 27.3628 42.0964 34.9768C42.0964 41.7256 40.1129 46.2681 35.4648 50.166C34.0545 51.3485 32.2774 52 30.4615 52ZM15.1477 11.7044C12.0619 14.3142 8.65499 18.3172 5.97824 22.4868C2.86427 27.3382 1.1494 31.7741 1.1494 34.9768C1.1494 41.4279 2.95026 45.5695 7.3652 49.2719C8.57046 50.2819 10.0871 50.8381 11.6354 50.8381H30.462C32.0107 50.8381 33.5274 50.2814 34.7322 49.2719C39.1476 45.5695 40.9485 41.4279 40.9485 34.9768C40.9485 31.7741 39.2336 27.3382 36.1196 22.4868C33.4429 18.3167 30.036 14.3137 26.9502 11.7044C26.7447 11.7737 26.5338 11.8081 26.3182 11.8081H15.7792C15.564 11.8081 15.3527 11.7732 15.1477 11.7044Z" fill="#00A68A"/>
<path d="M15.4523 8.80145C15.3056 8.80145 15.1628 8.74495 15.0549 8.6403L10.639 4.36265C10.3295 4.06247 10.1872 3.67091 10.2474 3.28771C10.3082 2.90549 10.5642 2.57878 10.9504 2.3916L12.4593 1.65859C13.0403 1.37659 13.9424 1.31322 14.557 1.5117L16.6022 2.17396C16.9034 2.27025 17.4295 2.18624 17.685 2.00004L19.9814 0.327201C20.5794 -0.109555 21.5189 -0.109555 22.1189 0.327201L24.4162 2.00004C24.6718 2.18722 25.1984 2.27025 25.4991 2.17396L27.5409 1.51268C28.1559 1.31322 29.0585 1.3761 29.6396 1.65958L31.146 2.39062C31.5322 2.57878 31.7878 2.90598 31.848 3.2882C31.9082 3.67091 31.7654 4.06247 31.4564 4.36216L27.041 8.63981C26.9021 8.77344 26.7048 8.82847 26.5202 8.78769C26.4454 8.77099 26.3784 8.76264 26.3162 8.76264H15.7792C15.717 8.76264 15.65 8.77099 15.5752 8.78769C15.5349 8.79702 15.4931 8.80145 15.4523 8.80145ZM11.3876 3.47833C11.3964 3.48128 11.41 3.50044 11.4342 3.52402L15.6481 7.60565C15.6923 7.6027 15.736 7.60123 15.7797 7.60123H26.3177C26.3614 7.60123 26.4051 7.6027 26.4493 7.60565L30.6631 3.52304C30.6879 3.49945 30.7015 3.48029 30.7088 3.46752C30.7073 3.46752 30.6816 3.45475 30.65 3.43853L29.1431 2.70701C28.8254 2.55274 28.2288 2.51 27.8921 2.61956L25.8503 3.28034C25.2042 3.49012 24.2982 3.34568 23.7458 2.94332L21.448 1.27048C21.244 1.12162 20.8578 1.12211 20.6537 1.26998L18.3569 2.94332C17.8031 3.3447 16.8985 3.48914 16.2524 3.28034L14.2077 2.61857C13.8768 2.51245 13.2686 2.55471 12.9567 2.70651L11.4474 3.43952C11.4177 3.45426 11.3983 3.46801 11.3876 3.47833Z" fill="#00A68A"/>
<path d="M26.3174 11.8081H15.7789C15.4296 11.8081 15.091 11.7167 14.7728 11.5369C14.1112 11.166 13.6992 10.463 13.6992 9.7044C13.6992 8.72821 14.3837 7.86551 15.3271 7.65327C15.4855 7.6179 15.6332 7.6012 15.7794 7.6012H26.3174C26.4636 7.6012 26.6108 7.6179 26.7682 7.65278C27.7126 7.866 28.3975 8.72821 28.3975 9.7044C28.3975 10.4634 27.9856 11.1665 27.323 11.5379C27.0043 11.7167 26.6662 11.8081 26.3174 11.8081ZM15.7789 8.7626C15.7167 8.7626 15.6497 8.77096 15.5749 8.78766C15.1547 8.88199 14.8481 9.26814 14.8481 9.70391C14.8481 10.0409 15.0332 10.3539 15.3315 10.5214C15.4777 10.604 15.6278 10.6457 15.7789 10.6457H26.3169C26.468 10.6457 26.6176 10.604 26.7638 10.5219C27.0626 10.3539 27.2477 10.0409 27.2477 9.70391C27.2477 9.26765 26.9411 8.88199 26.5195 8.78717C26.4461 8.77096 26.3791 8.7626 26.3169 8.7626H15.7789Z" fill="#00A68A"/>
<path d="M22.1161 42.7402H19.8746C19.3922 42.7402 18.9992 42.3428 18.9992 41.8549V40.468C17.9567 40.2813 16.9972 39.9094 16.3118 39.4206L16.03 39.2196C15.7138 38.9946 15.5787 38.5633 15.7113 38.1938L16.5343 35.9015C16.6285 35.6381 16.8272 35.4387 17.0789 35.3542C17.3305 35.2711 17.6079 35.3099 17.8382 35.4642L18.3152 35.7816C18.9657 36.2144 19.8362 36.4728 20.6446 36.4728C21.1984 36.4728 21.845 36.2798 21.845 35.7369C21.845 35.5281 21.845 35.0938 20.2788 34.459C18.2623 33.67 15.9401 32.3956 15.9401 29.5447C15.9401 27.4842 17.1576 25.8128 19.1474 25.0931V23.5318C19.1474 23.0439 19.5404 22.6465 20.0233 22.6465H22.2429C22.7258 22.6465 23.1188 23.0439 23.1188 23.5318V24.844C23.881 24.9904 24.5713 25.2479 25.217 25.6262L25.5512 25.8212C25.9189 26.0364 26.0822 26.5021 25.9306 26.903L25.0732 29.1625C24.9804 29.4071 24.7909 29.5967 24.5529 29.6832C24.3173 29.7702 24.0506 29.7461 23.8251 29.6164L23.3695 29.3565C23.0571 29.1787 22.4086 28.8087 21.3456 28.8087C21.0007 28.8087 20.4216 28.8711 20.4216 29.2902C20.4216 29.4607 20.4216 29.7176 22.2293 30.4649C23.9976 31.1846 26.3479 32.4993 26.3479 35.588C26.3479 37.6991 25.045 39.4785 22.992 40.2278V41.8549C22.9915 42.3428 22.599 42.7402 22.1161 42.7402ZM20.1486 41.5778H21.8426V39.8033C21.8426 39.5429 22.0146 39.314 22.2623 39.2437C24.0734 38.7308 25.1985 37.3296 25.1985 35.5875C25.1985 33.2416 23.4797 32.2256 21.7984 31.5423C21.7974 31.5418 21.7964 31.5413 21.7955 31.5408C20.0859 30.8343 19.2727 30.3175 19.2727 29.2902C19.2727 28.5321 19.8154 27.6463 21.3461 27.6463C22.7112 27.6463 23.5677 28.1347 23.934 28.3435L24.1147 28.4466L24.7739 26.709L24.6423 26.6318C23.9932 26.2525 23.2844 26.0187 22.4746 25.918C22.1865 25.8821 21.9704 25.635 21.9704 25.3412V23.8089H20.2968V25.5181C20.2968 25.7789 20.1248 26.0084 19.8756 26.0781C18.1311 26.5665 17.09 27.8625 17.09 29.5447C17.09 31.6715 18.8253 32.6442 20.7005 33.3782C22.3104 34.0301 22.9949 34.7351 22.9949 35.7369C22.9949 36.8541 22.0291 37.6347 20.6456 37.6347C19.622 37.6347 18.5149 37.3046 17.6846 36.7524L17.4966 36.6271L16.8632 38.3918L16.9744 38.4709C17.6093 38.9239 18.6057 39.2673 19.641 39.3896C19.9305 39.424 20.1486 39.6721 20.1486 39.9669V41.5778ZM16.6912 38.269L16.6926 38.27C16.6922 38.2695 16.6917 38.269 16.6912 38.269Z" fill="#FFCB2E"/>
<path d="M11.6349 48.5143C10.6206 48.5143 9.62517 48.1478 8.83186 47.4821C4.95615 44.2332 3.44678 40.7269 3.44678 34.9768H4.59569C4.59569 40.3338 5.98896 43.5891 9.56493 46.5879C10.1527 47.0807 10.8878 47.3524 11.6344 47.3524V48.5143H11.6349Z" fill="#00A68A"/>
<path d="M28.6365 51.8299L27.8242 51.0085L41.5 37.304V39L28.6365 51.8299ZM28.6365 44.5667L27.8242 43.7453L41 31L41.5 32L28.6365 44.5667ZM28.6365 37.304L27.8242 36.4826L38.5 25.5L39 26.5L28.6365 37.304ZM28.6365 30.0413L27.8242 29.2198L36 21L36.5 21.9571L28.6365 30.0413ZM28.6365 22.7785L27.8242 21.9571L33 16.9999L34 18L28.6365 22.7785ZM28.6365 15.5153L27.8242 14.6939L29.5 13L30.5 13.9999L28.6365 15.5153Z" fill="#00A68A"/>
<path d="M30.4615 51.7096H11.6349C9.88601 51.7096 8.17454 51.0818 6.81479 49.942C2.23905 46.105 0.286621 41.6294 0.286621 34.9763C0.286621 27.4478 8.7813 15.8239 14.8708 10.8044C14.9626 10.7293 15.0899 10.718 15.1924 10.7754C15.3809 10.882 15.5781 10.9356 15.7787 10.9356H26.3167C26.5168 10.9356 26.7141 10.882 26.9031 10.7754C27.0056 10.718 27.1328 10.7288 27.2247 10.8044C33.3151 15.8239 41.8098 27.4483 41.8098 34.9768C41.8098 41.6299 39.8569 46.1055 35.2816 49.9425C33.9224 51.0818 32.2109 51.7096 30.4615 51.7096ZM15.0923 11.3728C11.9516 13.9968 8.46553 18.0775 5.7368 22.3286C2.59319 27.2267 0.861807 31.7186 0.861807 34.9768C0.861807 41.5247 2.69278 45.7312 7.18156 49.4954C8.43833 50.5487 10.0201 51.1285 11.6349 51.1285H30.4615C32.0768 51.1285 33.6586 50.5482 34.9153 49.4954C39.4041 45.7312 41.2351 41.5247 41.2351 34.9768C41.2351 31.7186 39.5042 27.2272 36.3601 22.3286C33.6314 18.078 30.1448 13.9968 27.0046 11.3728C26.7831 11.4686 26.5523 11.5178 26.3177 11.5178H15.7792C15.5441 11.5178 15.3134 11.4686 15.0923 11.3728Z" fill="#00A68A"/>
</g>
<defs>
<clipPath id="clip0">
<rect width="43" height="52" fill="white"/>
</clipPath>
</defs>
</svg>
