<svg width="106" height="38" viewBox="0 0 106 38" fill="none" xmlns="http://www.w3.org/2000/svg">
<g clip-path="url(#clip0)">
<path d="M87.4863 35.7266C87.389 35.7266 87.291 35.7077 87.1988 35.6671C86.9331 35.5525 86.7603 35.2907 86.7603 35.0014V26.8649H0.726027C0.324534 26.8649 0 26.5407 0 26.1397V11.861C0 11.46 0.324534 11.1358 0.726027 11.1358H86.7603V2.99932C86.7603 2.71577 86.9258 2.45906 87.1828 2.34086C87.4406 2.22338 87.744 2.26399 87.9589 2.44891L105.747 17.6987C105.903 17.8328 105.995 18.0264 106 18.2317C106.004 18.4369 105.922 18.6356 105.772 18.7763L87.9844 35.5286C87.8471 35.6584 87.6678 35.7266 87.4863 35.7266ZM1.45205 25.4145H87.4863C87.8878 25.4145 88.2123 25.7387 88.2123 26.1397V33.3204L104.189 18.2744L88.2123 4.5773V11.861C88.2123 12.262 87.8878 12.5862 87.4863 12.5862H1.45205V25.4145Z" fill="#FFCB2E"/>
<path d="M80.7706 0.749146H8.16782V37.2509H80.7706V0.749146Z" fill="white"/>
<path d="M80.7705 38H8.1678C7.75397 38 7.41782 37.6642 7.41782 37.2509V0.749108C7.41782 0.335757 7.75397 0 8.1678 0H80.7705C81.1844 0 81.5205 0.335757 81.5205 0.749108V37.2509C81.5205 37.6642 81.1844 38 80.7705 38ZM8.91779 36.5018H80.0206V1.49822H8.91779V36.5018Z" fill="#00A68A"/>
<path d="M45.5982 29.0724H43.3228C42.8327 29.0724 42.4334 28.6736 42.4334 28.1841V26.7939C41.377 26.6061 40.4034 26.2341 39.7065 25.7438L39.4197 25.5422C39.098 25.3174 38.9608 24.8845 39.0966 24.5132L39.9315 22.2159C40.0266 21.9533 40.2277 21.7525 40.4833 21.6676C40.741 21.5842 41.0206 21.6227 41.2551 21.7771L41.7401 22.0955C42.3993 22.5291 43.2829 22.7873 44.1033 22.7873C44.6652 22.7873 45.3215 22.5944 45.3215 22.0498C45.3215 21.8402 45.3215 21.4044 43.7323 20.7691C41.6856 19.978 39.3289 18.7002 39.3289 15.8423C39.3289 13.7755 40.5646 12.1011 42.5844 11.3795V9.81461C42.5844 9.32512 42.9837 8.92627 43.4738 8.92627H45.7274C46.2175 8.92627 46.6168 9.32512 46.6168 9.81461V11.1294C47.3878 11.2758 48.0892 11.5347 48.7462 11.9133L49.086 12.1098C49.4585 12.3244 49.624 12.7907 49.4708 13.1939L48.601 15.4587C48.5059 15.7045 48.3135 15.8952 48.0717 15.9815C47.8292 16.0656 47.5606 16.0432 47.3319 15.9133L46.8702 15.6537C46.579 15.4884 45.8966 15.1041 44.8162 15.1041C44.4663 15.1041 43.8782 15.1664 43.8782 15.5863C43.8782 15.7567 43.8782 16.0149 45.7129 16.764C47.5083 17.4863 49.8933 18.8046 49.8933 21.9004C49.8933 24.0165 48.5712 25.8004 46.4875 26.551V28.1826C46.4868 28.6736 46.0875 29.0724 45.5982 29.0724ZM43.6009 27.9063H45.3201V26.1275C45.3201 25.8664 45.4943 25.6365 45.7463 25.5669C47.5846 25.0528 48.7259 23.6481 48.7259 21.9019C48.7259 19.5508 46.982 18.532 45.2751 17.8452C45.2736 17.8445 45.2729 17.8445 45.2722 17.8438C43.5362 17.1353 42.7108 16.6175 42.7108 15.5877C42.7108 14.8278 43.2625 13.9401 44.8155 13.9401C46.2029 13.9401 47.072 14.4311 47.443 14.6407L47.6252 14.7436L48.2946 13.001L48.1603 12.9234C47.5011 12.5435 46.7809 12.3092 45.9612 12.2084C45.6686 12.1729 45.4486 11.9242 45.4486 11.6305V10.0945H43.7512V11.8081C43.7512 12.0699 43.5762 12.2998 43.3228 12.3694C41.5527 12.8589 40.4949 14.1577 40.4949 15.8445C40.4949 17.9765 42.2563 18.9511 44.1592 19.6872C45.7935 20.3406 46.4883 21.0469 46.4883 22.052C46.4883 23.1724 45.5067 23.9548 44.1033 23.9548C43.0643 23.9548 41.9412 23.6242 41.0982 23.0701L40.9073 22.9447L40.264 24.7126L40.3773 24.7924C41.022 25.2457 42.0334 25.5908 43.0839 25.7134C43.3772 25.7482 43.5994 25.9969 43.5994 26.2921V27.9063H43.6009ZM40.1936 24.9106L40.1929 24.9121C40.1929 24.9113 40.1929 24.9113 40.1936 24.9106ZM40.0905 24.5886L40.0934 24.5901C40.0927 24.5901 40.0912 24.5894 40.0905 24.5886ZM48.4994 13.1185C48.4994 13.1192 48.5001 13.1192 48.5008 13.1192L48.4994 13.1185Z" fill="#FFCB2E"/>
<path d="M80.2608 0.127525L71.7284 8.5564L72.7495 9.5876L81.2819 1.15873L80.2608 0.127525Z" fill="#00A68A"/>
<path d="M75.1853 0.228646L71.7323 3.58374L72.7448 4.62335L76.1978 1.26826L75.1853 0.228646Z" fill="#00A68A"/>
<path d="M80.2608 6.33222L71.7279 14.7616L72.749 15.7928L81.2819 7.36342L80.2608 6.33222Z" fill="#00A68A"/>
<path d="M80.2611 12.5374L71.7282 20.9668L72.7493 21.998L81.2821 13.5686L80.2611 12.5374Z" fill="#00A68A"/>
<path d="M80.2613 18.7426L71.7284 27.172L72.7495 28.2032L81.2824 19.7738L80.2613 18.7426Z" fill="#00A68A"/>
<path d="M80.2612 24.9473L71.7289 33.3762L72.75 34.4074L81.2823 25.9785L80.2612 24.9473Z" fill="#00A68A"/>
<path d="M80.2566 31.1558L76.5403 34.8678L77.567 35.8933L81.2833 32.1814L80.2566 31.1558Z" fill="#00A68A"/>
<path d="M68.2996 34.6424H11.6999C11.2861 34.6424 10.95 34.3067 10.95 33.8933V4.69479C10.95 4.28144 11.2861 3.94568 11.6999 3.94568H68.2996V5.44389H12.4499V33.1442H68.2996V34.6424Z" fill="#00A68A"/>
</g>
<defs>
<clipPath id="clip0">
<rect width="106" height="38" fill="white"/>
</clipPath>
</defs>
</svg>
